<?xml version="1.0" standalone="no"?><!DOCTYPE svg PUBLIC "-//W3C//DTD SVG 1.1//EN" "http://www.w3.org/Graphics/SVG/1.1/DTD/svg11.dtd"><svg class="icon" width="200px" height="200.00px" viewBox="0 0 1024 1024" version="1.1" xmlns="http://www.w3.org/2000/svg"><path d="M523.052 110.822c-217.38 0-393.604 176.222-393.604 393.602v66.68h787.208v-66.68c0.002-217.38-176.222-393.602-393.604-393.602z" fill="#6770E6" /><path d="M523.052 110.822c-217.38 0-393.604 176.222-393.604 393.602v40c0-217.38 176.224-393.602 393.604-393.602 217.382 0 393.604 176.222 393.604 393.602v-40c0.002-217.38-176.222-393.602-393.604-393.602z" fill="#8F95E6" /><path d="M916.388 502.95a395.424 395.424 0 0 0-7.722-76.372 122.932 122.932 0 0 0-39.212-6.242c-33.536 0.126-64.32 13.88-86.55 36.406-24.656-23.008-57.14-35.868-91.342-35.74-33.292 0.126-63.81 12.496-87.174 32.918-22.056-20.698-51.546-32.398-81.91-32.284-30.364 0.114-59.766 12.034-81.666 32.898-23.518-20.246-54.126-32.388-87.42-32.264-34.208 0.128-66.578 13.264-91.062 36.462-22.4-22.374-53.284-35.922-86.832-35.796a122.966 122.966 0 0 0-39.164 6.536 395.46 395.46 0 0 0-7.15 76.428l0.25 66.678 787.202-2.948-0.248-66.68z" fill="#5A62C9" /><path d="M98.682 567.36l116.096 381.972c8.924 29.358 35.998 49.426 66.682 49.426h61.708l-87.578-469.746c-7.14-38.296-40.562-66.062-79.516-66.062-54.306 0.002-93.184 52.452-77.392 104.41zM790.516 529.014L702.938 998.76h61.71c30.684 0 57.758-20.068 66.682-49.426l116.096-381.974c15.792-51.958-23.086-104.408-77.392-104.408-38.956 0-72.378 27.766-79.518 66.062z" fill="#69EBFC" /><path d="M263.562 571.77l79.606 426.99h127.156l-24.53-448.862c-2.666-48.768-42.986-86.946-91.826-86.946-57.544 0-100.954 52.25-90.406 108.818zM600.312 549.896L575.782 998.76h127.156l79.606-426.99c10.546-56.568-32.862-108.818-90.406-108.818-48.838 0-89.16 38.178-91.826 86.944z" fill="#F4E3ED" /><path d="M445.518 544.84l24.806 453.92h105.458l24.806-453.92c2.432-44.484-32.984-81.888-77.536-81.888-44.55 0-79.966 37.404-77.534 81.888z" fill="#69EBFC" /><path d="M774.328 958.76h-63.932l-7.458 40h61.708c30.684 0 57.758-20.068 66.682-49.426l10.966-36.082c-10.46 27.206-37.494 45.508-67.966 45.508z" fill="#5ED4E3" /><path d="M710.146 958.76h-132.178l-2.186 40h127.156l7.458-40z" fill="#EDDCE6" /><path d="M468.138 958.76l2.186 40h105.458l2.186-40z" fill="#5ED4E3" /><path d="M466.672 958.76h-130.962l7.458 40h127.156l-2.186-40z" fill="#EDDCE6" /><path d="M330.708 958.76h-58.93c-30.468 0-57.502-18.3-67.966-45.504l10.964 36.078c8.922 29.358 35.998 49.426 66.682 49.426h61.708l-7.458-40h-5z" fill="#5ED4E3" /><path d="M474.102 2.93c33.006-0.342 46.43 21.932 46.43 21.932s12.98-21.588 45.984-21.932 57.938 27.29 58.204 53.032c0.266 25.742-3.548 44.182-51.056 84.63-30.102 25.628-51.542 37.864-51.542 37.864s-21.688-11.79-52.314-36.788c-48.338-39.454-52.532-57.812-52.8-83.554-0.266-25.74 24.09-54.842 57.094-55.184z" fill="#FF8354" /><path d="M474.102 42.93c33.004-0.342 46.43 21.932 46.43 21.932s12.98-21.588 45.984-21.932c26.658-0.276 48.04 17.698 55.424 38.184 2.482-8.314 2.874-16.302 2.782-25.152-0.266-25.742-25.2-53.376-58.204-53.034-33.004 0.342-45.984 21.932-45.984 21.932s-13.424-22.274-46.43-21.932c-33.004 0.342-57.36 29.444-57.092 55.186 0.086 8.378 0.602 15.976 2.908 23.77 7.358-20.384 28.052-38.682 54.182-38.954z" fill="#FFAC8C" /><path d="M302.406 283.032m-26.512 0a26.512 26.512 0 1 0 53.024 0 26.512 26.512 0 1 0-53.024 0Z" fill="#C7FCFE" /><path d="M471.912 336.056m-26.512 0a26.512 26.512 0 1 0 53.024 0 26.512 26.512 0 1 0-53.024 0Z" fill="#C7FCFE" /><path d="M624.734 225.558m-26.512 0a26.512 26.512 0 1 0 53.024 0 26.512 26.512 0 1 0-53.024 0Z" fill="#C7FCFE" /><path d="M757.618 309.544m-26.512 0a26.512 26.512 0 1 0 53.024 0 26.512 26.512 0 1 0-53.024 0Z" fill="#C7FCFE" /></svg>