<?xml version="1.0" encoding="UTF-8"?>
<svg width="6px" height="6px" viewBox="0 0 6 6" version="1.1" xmlns="http://www.w3.org/2000/svg" xmlns:xlink="http://www.w3.org/1999/xlink">
    <title>dragon-bg</title>
    <g id="dragon-bg" stroke="none" stroke-width="1" fill="none" fill-rule="evenodd">
        <path d="M3.23717889,6.05567667 L3.23717889,4.07611556 L5.04161333,4.07611556 C4.96289111,4.22665667 4.86806111,4.36702444 4.75906111,4.49540222 L3.65670778,4.49540222 L3.65670778,5.56747778 C4.59471333,5.33518667 5.33458111,4.59519778 5.56699333,3.65670778 L0.487835556,3.65670778 C0.720732222,4.59519778 1.46035778,5.33518667 2.39860556,5.56747778 L2.39860556,4.49540222 L1.29588889,4.49540222 C1.18725222,4.36702444 1.09205889,4.22665667 1.01357889,4.07611556 L2.81813444,4.07611556 L2.81813444,6.05567667 C2.67510222,6.04586667 2.53497667,6.02661 2.39860556,5.99766444 C1.22855111,5.75035556 0.305684444,4.82700444 0.0580122222,3.65670778 C0.0289455556,3.52033667 0.00981,3.38009 -1.0658141e-14,3.23754222 L1.24235778,3.23754222 L1.24235778,2.81837667 L-1.0658141e-14,2.81837667 C0.00981,2.67570778 0.0289455556,2.53546111 0.0580122222,2.39896889 C0.305684444,1.22879333 1.22855111,0.305321111 2.39860556,0.0580122222 C2.53497667,0.0290666667 2.67510222,0.00981 2.81813444,7.10542736e-15 L2.81813444,1.97980333 L1.01357889,1.97980333 C1.09205889,1.82914111 1.18725222,1.68865222 1.29588889,1.56039556 L2.39860556,1.56039556 L2.39860556,0.488198889 C1.46035778,0.720732222 0.720732222,1.46072111 0.487835556,2.39896889 L5.56699333,2.39896889 C5.33458111,1.46072111 4.59471333,0.720732222 3.65670778,0.488198889 L3.65670778,1.56039556 L4.75906111,1.56039556 C4.86806111,1.68865222 4.96289111,1.82914111 5.04161333,1.97980333 L3.23717889,1.97980333 L3.23717889,7.10542736e-15 C3.37972667,0.00981 3.51997333,0.0290666667 3.65670778,0.0580122222 C4.82652,0.305321111 5.74950778,1.22879333 5.99742222,2.39896889 C6.02600444,2.53546111 6.04538222,2.67570778 6.05519222,2.81837667 L4.73253778,2.81837667 L4.73253778,3.23754222 L6.05519222,3.23754222 C6.04538222,3.38009 6.02600444,3.52033667 5.99742222,3.65670778 C5.74950778,4.82700444 4.82652,5.75035556 3.65670778,5.99766444 C3.51997333,6.02661 3.37972667,6.04586667 3.23717889,6.05567667 L3.23717889,6.05567667 Z M3.23717889,3.23754222 L4.31313,3.23754222 L4.31313,2.81837667 L3.23717889,2.81837667 L3.23717889,3.23754222 Z M1.66164444,3.23754222 L2.81813444,3.23754222 L2.81813444,2.81837667 L1.66164444,2.81837667 L1.66164444,3.23754222 Z" id="Fill-51" fill="#EAEBE7"></path>
    </g>
</svg>