<?xml version="1.0" encoding="UTF-8"?>
<svg width="460px" height="460px" viewBox="0 0 460 460" version="1.1" xmlns="http://www.w3.org/2000/svg" xmlns:xlink="http://www.w3.org/1999/xlink">
    <title>google-cloud</title>
    <g id="google-cloud" stroke="none" stroke-width="1" fill="none" fill-rule="evenodd">
        <g id="googlecloud" transform="translate(0.000000, 45.000000)" fill-rule="nonzero">
            <path d="M292.173271,102.040104 L306.216519,102.040104 L346.239777,62.0168463 L348.205831,45.0245161 C301.592352,3.88180482 237.038593,-10.2749835 177.485646,7.58518538 C117.932699,25.4453543 71.8235833,72.7903847 55.5445401,132.794817 C60.0033102,130.96725 64.9424848,130.670899 69.5877882,131.952222 L149.634303,118.751569 C149.634303,118.751569 153.706845,112.01081 155.813332,112.432107 C191.420027,73.3268106 251.343002,68.769462 292.454136,102.040104 L292.173271,102.040104 Z" id="Path" fill="#EA4335"></path>
            <path d="M403.255364,132.794817 C394.055821,98.9173488 375.167588,68.4619041 348.907994,45.1649486 L292.735001,101.337941 C316.454955,120.719378 329.966168,149.916023 329.387879,180.541861 L329.387879,190.512567 C356.998782,190.512567 379.381842,212.895627 379.381842,240.50653 C379.381842,268.117434 356.998782,290.500494 329.387879,290.500494 L229.399952,290.500494 L219.429246,300.611632 L219.429246,360.576302 L229.399952,370.547008 L329.387879,370.547008 C386.71719,370.993345 437.574926,333.843046 454.585095,279.093586 C471.595264,224.344127 450.74405,164.914497 403.255364,132.794817 Z" id="Path" fill="#4285F4"></path>
            <path d="M129.271593,369.985278 L229.25952,369.985278 L229.25952,289.938764 L129.271593,289.938764 C122.147906,289.937189 115.107756,288.40464 108.628018,285.444924 L94.5847699,289.798331 L54.2806477,329.821588 L50.7698357,343.864836 C73.3714865,360.931694 100.950273,370.108178 129.271593,369.985278 L129.271593,369.985278 Z" id="Path" fill="#34A853"></path>
            <path d="M129.271593,110.324792 C73.7317121,110.657392 24.5331462,146.226387 6.80794846,198.862931 C-10.9172493,251.499475 6.74400699,309.583314 50.7698357,343.443539 L108.768451,285.444924 C88.504495,276.289731 76.7228035,254.851051 79.857606,232.836999 C82.9924085,210.822947 100.290172,193.525183 122.304224,190.390381 C144.318276,187.255578 165.756956,199.03727 174.912149,219.301225 L232.910764,161.302611 C208.233789,129.042073 169.887777,110.180823 129.271593,110.324792 Z" id="Path" fill="#FBBC05"></path>
        </g>
    </g>
</svg>